{"title":"Aoki Hagane no Arpeggio: Ars Nova","uid":9522670,"size":680963163,"categoryP":"video","categoryS":"tv_shows","magnet":"?xt=urn:btih:51eb38246a91426753b3c15a737b7e05005fd3c7&amp;dn=Aoki+Hagane+no+Arpeggio%3A+Ars+Nova&amp;tr=udp%3A%2F%2Ftracker.openbittorrent.com%3A80&amp;tr=udp%3A%2F%2Fopen.demonii.com%3A1337&amp;tr=udp%3A%2F%2Ftracker.coppersurfer.tk%3A6969&amp;tr=udp%3A%2F%2Fexodus.desync.com%3A6969","seeders":0,"leechers":0,"uploader":"p7trick","files":-1,"time":1390671194,"description":"downloaded from animewaffles\n\nAoki Hagane no Arpeggio: Ars Nova eps 1-12 ENGLISH SUBBED\n_________________________________________________________\n\n\nFormat                                   : MPEG-4\nFormat profile                           : Base Media / Version 2\nCodec ID                                 : mp42\nFile size                                : 48.0 MiB\nDuration                                 : 24mn 20s\nOverall bit rate mode                    : Variable\nOverall bit rate                         : 276 Kbps\n\nVideo\nID                                       : 1\nFormat                                   : AVC\nFormat/Info                              : Advanced Video Codec\nFormat profile                           : &lt;a class=&quot;__cf_email__&quot; href=&quot;/cdn-cgi/l/email-protection&quot; data-cfemail=&quot;c880a1afa08884fbe6f8&quot;&gt;[email&amp;#160;protected]&lt;/a&gt;&lt;script cf-hash='f9e31' type=&quot;text/javascript&quot;&gt;\n/* &lt;![CDATA[ */!function(){try{var t=&quot;currentScript&quot;in document?document.currentScript:function(){for(var t=document.getElementsByTagName(&quot;script&quot;),e=t.length;e--;)if(t[e].getAttribute(&quot;cf-hash&quot;))return t[e]}();if(t&amp;&amp;t.previousSibling){var e,r,n,i,c=t.previousSibling,a=c.getAttribute(&quot;data-cfemail&quot;);if(a){for(e=&quot;&quot;,r=parseInt(a.substr(0,2),16),n=2;a.length-n;n+=2)i=parseInt(a.substr(n,2),16)^r,e+=String.fromCharCode(i);e=document.createTextNode(e),c.parentNode.replaceChild(e,c)}}}catch(u){}}();/* ]]&gt; */&lt;/script&gt;\nFormat settings, CABAC                   : Yes\nFormat settings, ReFrames                : 6 frames\nCodec ID                                 : avc1\nCodec ID/Info                            : Advanced Video Coding\nDuration                                 : 24mn 20s\nBit rate mode                            : Variable\nBit rate                                 : 175 Kbps\nWidth                                    : 640 pixels\nHeight                                   : 360 pixels\nDisplay aspect ratio                     : 16:9\nFrame rate mode                          : Variable\nFrame rate                               : 23.976 fps\nMinimum frame rate                       : 23.974 fps\nMaximum frame rate                       : 23.981 fps\nColor space                              : YUV\nChroma subsampling                       : 4:2:0\nBit depth                                : 8 bits\nScan type                                : Progressive\nBits/(Pixel*Frame)                       : 0.032\nStream size                              : 30.5 MiB (63%)\n\nAudio\nID                                       : 2\nFormat                                   : AAC\nFormat/Info                              : Advanced Audio Codec\nFormat profile                           : LC\nCodec ID                                 : 40\nDuration                                 : 24mn 20s\nBit rate mode                            : Variable\nBit rate                                 : 96.0 Kbps\nMaximum bit rate                         : 208 Kbps\nChannel count                            : 2 channels\nChannel positions                        : Front: L R\nSampling rate                            : 44.1 KHz\nCompression mode                         : Lossy\nDelay relative to video                  : 83ms\nStream size                              : 16.7 MiB (35%)\n_________________________________________________________\n\nSummary:\nA fleet of unmanned ships, called the Fleet of Fog, equipped with super advanced weapons and technology suddenly appeared all over the world. Mankind didn't have the capability to face such a fleet and so was defeated in a devastating naval war. This resulted in mankind being driven out of the seas and losing their ability to travel the seas. 17 years after this devastating naval war, Chihaya Gunzou and his friends are aboard the I-401, a former Fleet of Fog submarine. Together with the I-401's mental model, Iona, they take on the Fleet of Fog.\nFor updates/requests:\nTwitter - @p7tricktorrent\nFacebook - /p7tricktorrent\nTPB - /user/p7trick/\nKAT - /user/iPirate7\n_________________________________________________________\n\nSEED!\n\nshare ratio:\n&quot;Scumbag = 0.1:1\nLeecher = 0.999:1\nMinimum = 1:1\nGood = 3:1\nGreat = 5:1\nAwesome = 10:1\n1337 = 100:1&quot;\t\t\t\t\t","torrent":{"xt":"urn:btih:51eb38246a91426753b3c15a737b7e05005fd3c7","amp;dn":"Aoki+Hagane+no+Arpeggio%3A+Ars+Nova","amp;tr":["udp%3A%2F%2Ftracker.openbittorrent.com%3A80","udp%3A%2F%2Fopen.demonii.com%3A1337","udp%3A%2F%2Ftracker.coppersurfer.tk%3A6969","udp%3A%2F%2Fexodus.desync.com%3A6969"],"infoHash":"51eb38246a91426753b3c15a737b7e05005fd3c7","infoHashBuffer":{"type":"Buffer","data":[81,235,56,36,106,145,66,103,83,179,193,90,115,123,126,5,0,95,211,199]},"announce":[],"urlList":[]}}